<svg version="1.1" id="Слой_1" xmlns="http://www.w3.org/2000/svg" xmlns:xlink="http://www.w3.org/1999/xlink" x="0px" y="0px" width="500px" height="500px" viewBox="0 0 48 48" enable-background="new 0 0 48 48" xml:space="preserve">
<g>
	<rect x="3" y="10" fill="#D32F2F" width="42" height="29"></rect>
	<circle fill="#D32F2F" cx="24" cy="36" r="5"></circle>
</g>
<circle fill="#4C0808" cx="24" cy="36" r="3"></circle>
<polygon fill="#D7CCC8" points="40,7 25,10 23,10 8,7 6,12 6,36 42,36 42,12 "></polygon>
<polygon fill="#efefef" points="8,33.001 23,33.001 23,36 25,36 25,33.001 40,33 42,36 6,36 "></polygon>
<g>
	<path fill="#ffffff" d="M40,7c0,0-15,0-15,3s0,26,0,26c0-3,15-3,15-3V7z"></path>
	<path fill="#ffffff" d="M8,7c0,0,15,0,15,3s0,26,0,26c0-3-15-3-15-3V7z"></path>
</g>
<g>
	<path fill="#efefef" d="M27,21.385c1.901-0.699,6.209-1.252,11-1.376V18c-3.672,0.075-8.117,0.388-11,1.34V21.385z"></path>
	<path fill="#efefef" d="M27,25.385c1.901-0.699,6.209-1.252,11-1.376V22c-3.672,0.075-8.117,0.388-11,1.34V25.385z"></path>
	<path fill="#efefef" d="M27,17.385c1.901-0.699,6.209-1.252,11-1.376V14c-3.672,0.075-8.117,0.388-11,1.34V17.385z"></path>
	<path fill="#efefef" d="M27,11.34v2.045c1.901-0.699,6.209-1.252,11-1.376V10C34.328,10.075,29.883,10.388,27,11.34z"></path>
	<path fill="#efefef" d="M32,26.366c-1.854,0.207-3.61,0.515-5,0.974v2.045c1.043-0.384,2.826-0.72,5-0.969V26.366z"></path>
	<path fill="#efefef" d="M21,21.385c-1.901-0.699-6.209-1.252-11-1.376V18c3.672,0.075,8.117,0.388,11,1.34V21.385z"></path>
	<path fill="#efefef" d="M21,25.385c-1.901-0.699-6.209-1.252-11-1.376V22c3.672,0.075,8.117,0.388,11,1.34V25.385z"></path>
	<path fill="#efefef" d="M21,29.385c-1.901-0.699-6.209-1.252-11-1.376V26c3.672,0.075,8.117,0.388,11,1.34V29.385z"></path>
	<path fill="#efefef" d="M21,17.385c-1.901-0.699-6.209-1.252-11-1.376V14c3.672,0.075,8.117,0.388,11,1.34V17.385z"></path>
	<path fill="#efefef" d="M21,11.34v2.045c-1.901-0.699-6.209-1.252-11-1.376V10C13.672,10.075,18.117,10.388,21,11.34z"></path>
	<rect x="23" y="10" fill="#efefef" width="2" height="26"></rect>
</g>
</svg>