<svg version="1.0" id="Layer_1" xmlns="http://www.w3.org/2000/svg" xmlns:xlink="http://www.w3.org/1999/xlink" x="0px" y="0px" viewBox="0 0 48 48" enable-background="new 0 0 48 48" xml:space="preserve">
<g>
	<circle fill="#ffffff" cx="12" cy="21" r="5"></circle>
</g>
<g>
	<path fill="#ffffff" d="M2,34.7c0,0,2.8-6.3,10-6.3s10,6.3,10,6.3V38H2V34.7z"></path>
	<path fill="#ffffff" d="M46,34.7c0,0-2.8-6.3-10-6.3s-10,6.3-10,6.3V38h20V34.7z"></path>
</g>
<circle fill="#ffffff" cx="24" cy="17" r="6"></circle>
<path fill="#ffffff" d="M36,34.1c0,0-3.3-7.5-12-7.5s-12,7.5-12,7.5V38h24V34.1z"></path>
<g>
	<circle fill="#ffffff" cx="36" cy="21" r="5"></circle>
</g>
<g>
	<g>
		<circle fill="#ffffff" cx="12" cy="21" r="5"></circle>
	</g>
	<g>
		<circle fill="#ffffff" cx="36" cy="21" r="5"></circle>
	</g>
</g>
</svg>